<?xml version="1.0" encoding="utf-8"?>
<!-- Generator: Adobe Illustrator 26.2.1, SVG Export Plug-In . SVG Version: 6.00 Build 0)  -->
<svg version="1.1" id="Calque_1" xmlns="http://www.w3.org/2000/svg" xmlns:xlink="http://www.w3.org/1999/xlink" x="0px" y="0px"
	 viewBox="0 0 456.6 494.7" style="enable-background:new 0 0 456.6 494.7;" xml:space="preserve">
<style type="text/css">
	.st0{fill:url(#SVGID_1_);stroke:url(#SVGID_00000019678463953470163940000014515243132316895158_);stroke-miterlimit:10;}
	
		.st1{fill:url(#SVGID_00000063606133411579821670000017909272256378398881_);stroke:url(#SVGID_00000047060061096646967860000009091829973210069422_);stroke-miterlimit:10;}
	
		.st2{fill:url(#SVGID_00000088829834965526485040000014352405103732822972_);stroke:url(#SVGID_00000072274475552831054730000003121955510388235945_);stroke-miterlimit:10;}
	
		.st3{fill:url(#SVGID_00000026875514259642630330000003711209592884826757_);stroke:url(#SVGID_00000106849232411800699020000000685991592054965904_);stroke-miterlimit:10;}
	.st4{fill:url(#SVGID_00000015355270138959550660000002731092226053496747_);}
	.st5{fill:url(#SVGID_00000011026473038263735870000010455323275713252797_);}
	.st6{fill:url(#SVGID_00000183971048184985532140000008494942543581525641_);}
	.st7{fill:url(#SVGID_00000158031059448459336750000007533989951761296015_);}
	.st8{fill:url(#SVGID_00000016760809254116245240000015731985956462375601_);}
	.st9{fill:#140A06;}
	.st10{fill:#7B4F36;}
	.st11{fill:#684C34;}
	.st12{fill:#79593A;}
</style>
<linearGradient id="SVGID_1_" gradientUnits="userSpaceOnUse" x1="35.557" y1="2123.426" x2="461.0639" y2="2270.8533" gradientTransform="matrix(1 0 0 1 0 -1940)">
	<stop  offset="0" style="stop-color:#F9F4EB"/>
	<stop  offset="0.0889" style="stop-color:#F8F2E7"/>
	<stop  offset="0.1699" style="stop-color:#F6ECDD"/>
	<stop  offset="0.2479" style="stop-color:#F3E3CD"/>
	<stop  offset="0.3236" style="stop-color:#EFD6B5"/>
	<stop  offset="0.3376" style="stop-color:#EDD3B0"/>
	<stop  offset="0.4198" style="stop-color:#ECCFA9"/>
	<stop  offset="0.4801" style="stop-color:#EBCAA0"/>
	<stop  offset="0.7029" style="stop-color:#E1BC8B"/>
	<stop  offset="0.8098" style="stop-color:#DCB480"/>
	<stop  offset="0.8437" style="stop-color:#CA9E70"/>
	<stop  offset="0.8929" style="stop-color:#B98960"/>
	<stop  offset="0.9442" style="stop-color:#AF7D57"/>
	<stop  offset="1" style="stop-color:#AC7954"/>
</linearGradient>
<linearGradient id="SVGID_00000174575772219864716510000005849534115686036915_" gradientUnits="userSpaceOnUse" x1="-8.0354" y1="2146.6448" x2="430.5085" y2="2224.9258" gradientTransform="matrix(1 0 0 1 0 -1940)">
	<stop  offset="0" style="stop-color:#E8C798"/>
	<stop  offset="0.1386" style="stop-color:#E8C89B"/>
	<stop  offset="0.2413" style="stop-color:#EBCDA4"/>
	<stop  offset="0.3158" style="stop-color:#EDD3B0"/>
	<stop  offset="0.3985" style="stop-color:#ECD0A9"/>
	<stop  offset="0.4825" style="stop-color:#E9CA9D"/>
	<stop  offset="0.7567" style="stop-color:#E7C89A"/>
	<stop  offset="0.7693" style="stop-color:#C8A77F"/>
	<stop  offset="0.7898" style="stop-color:#A07E5E"/>
	<stop  offset="0.8108" style="stop-color:#816046"/>
	<stop  offset="0.8322" style="stop-color:#6A4B35"/>
	<stop  offset="0.8541" style="stop-color:#5C3D2B"/>
	<stop  offset="0.8767" style="stop-color:#533624"/>
	<stop  offset="0.9014" style="stop-color:#503322"/>
</linearGradient>
<path style="fill:url(#SVGID_1_);stroke:url(#SVGID_00000174575772219864716510000005849534115686036915_);stroke-miterlimit:10;" d="
	M416.4,119.7c0,0-20.2,1.8-24,26.7c0,0,0,13,5.9,21.6l2.2,3.1c0,0,1,1.4-0.6,5.1l-73.7,171.2l-2.4,4.1c0,0-2.6,4.1-9.6,1.4
	c0,0-6.1-2.4-4.7-13.4l20.2-146.6l13-87.7c0,0,0.7-3.4,3.4-4.2c0.7-0.2,1.4-0.5,2.1-1c4.3-2.6,16.9-11.8,17.5-27.7
	c0,0,3-16.9-11.6-27.5c-10.4-7.6-24.4-8.5-35.4-1.9c-6.4,3.8-12.3,10.4-13.7,22c0,0-3.1,13.2,4.5,24.4c0,0,5.3,6.3,6.7,7.3
	c0,0,1.6,1.4,1.2,3.1l-44.2,207.6c0,0-3.1,12.6-13.4,12.8c0,0-7.1,1.4-8.5-10.6l-6.1-129.9l-5.5-112.1c0,0,0.6-5.5,4.7-7.9
	c0,0,15.5-11.8,10.8-30.7c0,0-4.7-29.3-37.9-23.4c0,0-24.6,7.3-17.5,40.7c0,0,2.4,9.4,11.4,14.9c0,0,5.5,2.4,5.5,9.6L208.2,307
	c0,0,0.8,13.8-12.2,14.7c0,0-7.7,0.8-12.4-23.2L138.1,105c0,0-2.5-11.2,3-16.1c0,0,17.6-22.9-2.4-44.4c0,0-16.7-16.3-38.7-1.2
	c0,0-15.7,9.8-9.4,35.6c0,0,1.5,10.7,15.2,18.1c0,0,7.9,2.6,8.5,9.5l27.9,186.1c0,0,5.7,42.5,4.3,50.9c0,0,0.8,7.5-7.3,9.8
	c0,0-6.1,1.4-12.8-15.5L57.3,179.9c0,0-4.3-10.8,0-15.7c0,0,16.3-26.1-8.6-41.3c0,0-17.9-12.2-36.2,3.7c0,0-20.2,18.3,0,41.3
	c0,0,4.7,6.3,16.1,9.2c0,0,6.7,0.2,7.7,7.5l58.6,170.2l32.6,95.5c0,0,3.2,11.6,5.1,13.2c0,0,5.3,5.7,23.2,11.4
	c0,0,41.9,20.8,94.9,14.4c0,0,35.2-3.3,67.4-18.7l5.1-2.9c0,0,2.6-1,4.7-9.4l33-98.1l35.8-100.3l21-61.5l4.3-10.6
	c0,0,2.4-6.5,9.6-8.1c0,0,22.2-4.1,22-31.3C453.8,148.4,452,115.2,416.4,119.7z M256.4,455.5c0,0-55.4,9.2-87.3-11.2
	c0,0-15.1-7.9-10.2-27.7c0,0,3.6-9.3,17.3-14.2c0,0,22.4-13,78-7.7c0,0,44.6,5.1,44.8,28.5C299.1,423.3,306.9,447.8,256.4,455.5z"/>
<linearGradient id="SVGID_00000152222378574173885990000014714797310268294838_" gradientUnits="userSpaceOnUse" x1="111.3558" y1="2146.8396" x2="409.3732" y2="2251.6709" gradientTransform="matrix(1 0 0 1 0 -1940)">
	<stop  offset="0.1197" style="stop-color:#F3DFBD"/>
	<stop  offset="0.2571" style="stop-color:#F0DBB9"/>
	<stop  offset="0.3824" style="stop-color:#E7CFAC"/>
	<stop  offset="0.5029" style="stop-color:#D9BA96"/>
	<stop  offset="0.6199" style="stop-color:#C69F7A"/>
	<stop  offset="0.6909" style="stop-color:#B98B67"/>
</linearGradient>
<linearGradient id="SVGID_00000147916171953477459570000000704597182051151772_" gradientUnits="userSpaceOnUse" x1="-7.2722" y1="2145.2322" x2="431.2716" y2="2223.5132" gradientTransform="matrix(1 0 0 1 0 -1940)">
	<stop  offset="0" style="stop-color:#E8C798"/>
	<stop  offset="0.1386" style="stop-color:#E8C89B"/>
	<stop  offset="0.2413" style="stop-color:#EBCDA4"/>
	<stop  offset="0.3158" style="stop-color:#EDD3B0"/>
	<stop  offset="0.3985" style="stop-color:#ECD0A9"/>
	<stop  offset="0.4825" style="stop-color:#E9CA9D"/>
	<stop  offset="0.7143" style="stop-color:#E7C89A"/>
	<stop  offset="0.7485" style="stop-color:#EFD8B7"/>
	<stop  offset="0.7844" style="stop-color:#F5E5CF"/>
	<stop  offset="0.8213" style="stop-color:#FAEFE0"/>
	<stop  offset="0.8596" style="stop-color:#FDF5EA"/>
	<stop  offset="0.9014" style="stop-color:#FEF7EE"/>
</linearGradient>
<path style="fill:url(#SVGID_00000152222378574173885990000014714797310268294838_);stroke:url(#SVGID_00000147916171953477459570000000704597182051151772_);stroke-miterlimit:10;" d="
	M417.23,117.913c0,0-20.2,1.8-24,26.7c0,0,0,13,5.9,21.6l2.2,3.1c0,0,1,1.4-0.6,5.1l-73.7,171.2l-2.4,4.1c0,0-2.6,4.1-9.6,1.4
	c0,0-6.1-2.4-4.7-13.4l20.2-146.6l13-87.7c0,0,0.7-3.4,3.4-4.2c0.7-0.2,3-1.6,3.7-2c4.3-2.6,15.4-10.8,15.9-26.7
	c0,0,3-16.9-11.6-27.5c-10.4-7.6-24.4-8.5-35.4-1.9c-6.4,3.8-12.3,10.4-13.7,22c0,0-3.1,13.2,4.5,24.4c0,0,5.3,6.3,6.7,7.3
	c0,0,1.6,1.4,1.2,3.1l-44.2,207.6c0,0-3.1,12.6-13.4,12.8c0,0-7.1,1.4-8.5-10.6l-6.1-129.9l-5.5-112.1c0,0,0.6-5.5,4.7-7.9
	c0,0,15.5-11.8,10.8-30.7c0,0-3.8-28.3-37-22.4c0,0-24.7,6.2-17.6,39.6c0,0,3.4,6.8,11.3,13.6c0,0,4.8,3.8,4.8,11.1l-8.5,236.3
	c0,0,0.8,13.8-12.2,14.7c0,0-7.7,0.8-12.4-23.2l-45.5-193.6c0,0-2.5-11.2,3-16.1c0,0,17.6-22.9-2.4-44.4c0,0-16.7-16.3-38.7-1.2
	c0,0-15.7,9.8-9.4,35.6c0,0,1.5,10.7,15.2,18.1c0,0,7.9,2.6,8.5,9.5l27.9,186.1c0,0,5.7,42.5,4.3,50.9c0,0,0.8,7.5-7.3,9.8
	c0,0-6.1,1.4-12.8-15.5l-69.1-157.9c0,0-4.3-10.8,0-15.7c0,0,16.3-26.1-8.6-41.3c0,0-17.9-12.2-36.2,3.7c0,0-20.2,18.3,0,41.3
	c0,0,4.7,6.3,16.1,9.2c0,0,6.7,0.2,7.7,7.5l58.6,170.2l32.6,95.5c0,0,3.2,11.6,5.1,13.2c0,0,5.3,5.7,23.2,11.4
	c0,0,41.9,20.8,94.9,14.4c0,0,35.2-3.3,67.4-18.7l5.1-2.9c0,0,2.6-1,4.7-9.4l33-98.1l35.8-100.3l21-61.5l4.3-10.6
	c0,0,2.4-6.5,9.6-8.1c0,0,22.2-4.1,22-31.3C454.63,146.613,452.83,113.413,417.23,117.913z M257.23,453.713c0,0-55.4,9.2-87.3-11.2
	c0,0-15.1-7.9-10.2-27.7c0,0,3.6-9.3,17.3-14.2c0,0,22.4-13,78-7.7c0,0,44.6,5.1,44.8,28.5
	C299.93,421.513,307.73,446.013,257.23,453.713z"/>
<linearGradient id="SVGID_00000122714354972697011210000006749989700274559664_" gradientUnits="userSpaceOnUse" x1="229.9764" y1="2058.4817" x2="209.9776" y2="2477.7627" gradientTransform="matrix(1 0 0 1 0 -1940)">
	<stop  offset="0.5807" style="stop-color:#FCFBE9;stop-opacity:0"/>
	<stop  offset="0.6278" style="stop-color:#EEE6D0;stop-opacity:0.1806"/>
	<stop  offset="0.7253" style="stop-color:#CCB592;stop-opacity:0.5544"/>
	<stop  offset="0.8415" style="stop-color:#A37B4C"/>
	<stop  offset="0.843" style="stop-color:#9E764B"/>
	<stop  offset="0.8578" style="stop-color:#6E543E"/>
	<stop  offset="0.8731" style="stop-color:#4A3A31"/>
	<stop  offset="0.8886" style="stop-color:#2F2624"/>
	<stop  offset="0.9043" style="stop-color:#1C1718"/>
	<stop  offset="0.9204" style="stop-color:#0F0C0D"/>
	<stop  offset="0.9371" style="stop-color:#070506"/>
	<stop  offset="0.9552" style="stop-color:#050304"/>
</linearGradient>
<linearGradient id="SVGID_00000172434672838144183590000011404677870246665097_" gradientUnits="userSpaceOnUse" x1="-8.0354" y1="2146.6448" x2="430.5085" y2="2224.9258" gradientTransform="matrix(1 0 0 1 0 -1940)">
	<stop  offset="0" style="stop-color:#E8C798"/>
	<stop  offset="0.1025" style="stop-color:#E8C89B"/>
	<stop  offset="0.1785" style="stop-color:#EBCDA4"/>
	<stop  offset="0.2336" style="stop-color:#EDD3B0"/>
	<stop  offset="0.3571" style="stop-color:#ECD0A9"/>
	<stop  offset="0.4825" style="stop-color:#E9CA9D"/>
	<stop  offset="0.796" style="stop-color:#E7C89A"/>
	<stop  offset="0.8884" style="stop-color:#967456"/>
	<stop  offset="0.964" style="stop-color:#62432F"/>
	<stop  offset="1" style="stop-color:#503322"/>
</linearGradient>
<path style="fill:url(#SVGID_00000122714354972697011210000006749989700274559664_);stroke:url(#SVGID_00000172434672838144183590000011404677870246665097_);stroke-miterlimit:10;" d="
	M416.4,119.7c0,0-20.2,1.8-24,26.7c0,0,0,13,5.9,21.6l2.2,3.1c0,0,1,1.4-0.6,5.1l-73.7,171.2l-2.4,4.1c0,0-2.6,4.1-9.6,1.4
	c0,0-6.1-2.4-4.7-13.4l20.2-146.6l13-87.7c0,0,0.7-3.4,3.4-4.2c0.7-0.2,1.4-0.5,2.1-1c4.3-2.6,16.9-11.8,17.5-27.7
	c0,0,3-16.9-11.6-27.5c-10.4-7.6-24.4-8.5-35.4-1.9c-6.4,3.8-12.3,10.4-13.7,22c0,0-3.1,13.2,4.5,24.4c0,0,5.3,6.3,6.7,7.3
	c0,0,1.6,1.4,1.2,3.1l-44.2,207.6c0,0-3.1,12.6-13.4,12.8c0,0-7.1,1.4-8.5-10.6l-6.1-129.9l-5.5-112.1c0,0,0.6-5.5,4.7-7.9
	c0,0,15.5-11.8,10.8-30.7c0,0-4.7-29.3-37.9-23.4c0,0-24.6,7.3-17.5,40.7c0,0,2.4,9.4,11.4,14.9c0,0,5.5,2.4,5.5,9.6L208.2,307
	c0,0,0.8,13.8-12.2,14.7c0,0-7.7,0.8-12.4-23.2L138.1,105c0,0-2.5-11.2,3-16.1c0,0,17.6-22.9-2.4-44.4c0,0-16.7-16.3-38.7-1.2
	c0,0-15.7,9.8-9.4,35.6c0,0,1.5,10.7,15.2,18.1c0,0,7.9,2.6,8.5,9.5l27.9,186.1c0,0,5.7,42.5,4.3,50.9c0,0,0.8,7.5-7.3,9.8
	c0,0-6.1,1.4-12.8-15.5L57.3,179.9c0,0-4.3-10.8,0-15.7c0,0,16.3-26.1-8.6-41.3c0,0-17.9-12.2-36.2,3.7c0,0-20.2,18.3,0,41.3
	c0,0,4.7,6.3,16.1,9.2c0,0,6.7,0.2,7.7,7.5l58.6,170.2l32.6,95.5c0,0,3.2,11.6,5.1,13.2c0,0,5.3,5.7,23.2,11.4
	c0,0,41.9,20.8,94.9,14.4c0,0,35.2-3.3,67.4-18.7l5.1-2.9c0,0,2.6-1,4.7-9.4l33-98.1l35.8-100.3l21-61.5l4.3-10.6
	c0,0,2.4-6.5,9.6-8.1c0,0,22.2-4.1,22-31.3C453.8,148.4,452,115.2,416.4,119.7z M256.4,455.5c0,0-55.4,9.2-87.3-11.2
	c0,0-15.1-7.9-10.2-27.7c0,0,3.6-9.3,17.3-14.2c0,0,22.4-13,78-7.7c0,0,44.6,5.1,44.8,28.5C299.1,423.3,306.9,447.8,256.4,455.5z"/>
<linearGradient id="SVGID_00000033328695836914367000000002147520453627907456_" gradientUnits="userSpaceOnUse" x1="392.616" y1="2121.8093" x2="25.1207" y2="2271.512" gradientTransform="matrix(1 0 0 1 0 -1940)">
	<stop  offset="0.8033" style="stop-color:#FCFBE9;stop-opacity:0"/>
	<stop  offset="0.8124" style="stop-color:#EEE6D0;stop-opacity:0.1806"/>
	<stop  offset="0.8313" style="stop-color:#CCB592;stop-opacity:0.5544"/>
	<stop  offset="0.8538" style="stop-color:#A37B4C"/>
	<stop  offset="0.8552" style="stop-color:#9E764B"/>
	<stop  offset="0.8684" style="stop-color:#6E543E"/>
	<stop  offset="0.882" style="stop-color:#4A3A31"/>
	<stop  offset="0.8958" style="stop-color:#2F2624"/>
	<stop  offset="0.9098" style="stop-color:#1C1718"/>
	<stop  offset="0.9242" style="stop-color:#0F0C0D"/>
	<stop  offset="0.939" style="stop-color:#070506"/>
	<stop  offset="0.9552" style="stop-color:#050304"/>
</linearGradient>
<linearGradient id="SVGID_00000090279512905507455050000012725272829985070268_" gradientUnits="userSpaceOnUse" x1="-8.0354" y1="2146.6448" x2="430.5085" y2="2224.9258" gradientTransform="matrix(1 0 0 1 0 -1940)">
	<stop  offset="0" style="stop-color:#E8C798"/>
	<stop  offset="0.1025" style="stop-color:#E8C89B"/>
	<stop  offset="0.1785" style="stop-color:#EBCDA4"/>
	<stop  offset="0.2336" style="stop-color:#EDD3B0"/>
	<stop  offset="0.3571" style="stop-color:#ECD0A9"/>
	<stop  offset="0.4825" style="stop-color:#E9CA9D"/>
	<stop  offset="0.796" style="stop-color:#E7C89A"/>
	<stop  offset="0.8884" style="stop-color:#967456"/>
	<stop  offset="0.964" style="stop-color:#62432F"/>
	<stop  offset="1" style="stop-color:#503322"/>
</linearGradient>
<path style="fill:url(#SVGID_00000033328695836914367000000002147520453627907456_);stroke:url(#SVGID_00000090279512905507455050000012725272829985070268_);stroke-miterlimit:10;" d="
	M416.4,119.7c0,0-20.2,1.8-24,26.7c0,0,0,13,5.9,21.6l2.2,3.1c0,0,1,1.4-0.6,5.1l-73.7,171.2l-2.4,4.1c0,0-2.6,4.1-9.6,1.4
	c0,0-6.1-2.4-4.7-13.4l20.2-146.6l13-87.7c0,0,0.7-3.4,3.4-4.2c0.7-0.2,1.4-0.5,2.1-1c4.3-2.6,16.9-11.8,17.5-27.7
	c0,0,3-16.9-11.6-27.5c-10.4-7.6-24.4-8.5-35.4-1.9c-6.4,3.8-12.3,10.4-13.7,22c0,0-3.1,13.2,4.5,24.4c0,0,5.3,6.3,6.7,7.3
	c0,0,1.6,1.4,1.2,3.1l-44.2,207.6c0,0-3.1,12.6-13.4,12.8c0,0-7.1,1.4-8.5-10.6l-6.1-129.9l-5.5-112.1c0,0,0.6-5.5,4.7-7.9
	c0,0,15.5-11.8,10.8-30.7c0,0-4.7-29.3-37.9-23.4c0,0-24.6,7.3-17.5,40.7c0,0,2.4,9.4,11.4,14.9c0,0,5.5,2.4,5.5,9.6L208.2,307
	c0,0,0.8,13.8-12.2,14.7c0,0-7.7,0.8-12.4-23.2L138.1,105c0,0-2.5-11.2,3-16.1c0,0,17.6-22.9-2.4-44.4c0,0-16.7-16.3-38.7-1.2
	c0,0-15.7,9.8-9.4,35.6c0,0,1.5,10.7,15.2,18.1c0,0,7.9,2.6,8.5,9.5l27.9,186.1c0,0,5.7,42.5,4.3,50.9c0,0,0.8,7.5-7.3,9.8
	c0,0-6.1,1.4-12.8-15.5L57.3,179.9c0,0-4.3-10.8,0-15.7c0,0,16.3-26.1-8.6-41.3c0,0-17.9-12.2-36.2,3.7c0,0-20.2,18.3,0,41.3
	c0,0,4.7,6.3,16.1,9.2c0,0,6.7,0.2,7.7,7.5l58.6,170.2l32.6,95.5c0,0,3.2,11.6,5.1,13.2c0,0,5.3,5.7,23.2,11.4
	c0,0,41.9,20.8,94.9,14.4c0,0,35.2-3.3,67.4-18.7l5.1-2.9c0,0,2.6-1,4.7-9.4l33-98.1l35.8-100.3l21-61.5l4.3-10.6
	c0,0,2.4-6.5,9.6-8.1c0,0,22.2-4.1,22-31.3C453.8,148.4,452,115.2,416.4,119.7z M256.4,455.5c0,0-55.4,9.2-87.3-11.2
	c0,0-15.1-7.9-10.2-27.7c0,0,3.6-9.3,17.3-14.2c0,0,23.474-14.622,79.202-8.184c0,0,43.398,5.584,43.598,28.984
	C299.1,423.3,306.9,447.8,256.4,455.5z"/>
<radialGradient id="SVGID_00000156560241183201617180000015296251329163257473_" cx="39.8731" cy="2034.4418" r="30.9987" fx="33.0725" fy="2053.271" gradientTransform="matrix(1.061 0 0 1.061 -11.5054 -2012.0427)" gradientUnits="userSpaceOnUse">
	<stop  offset="0" style="stop-color:#FFFEFA"/>
	<stop  offset="0.2484" style="stop-color:#FEFDF8"/>
	<stop  offset="0.4327" style="stop-color:#FEFBF1"/>
	<stop  offset="0.4522" style="stop-color:#FDFAF0"/>
	<stop  offset="0.5126" style="stop-color:#F6EFE2;stop-opacity:0.8656"/>
	<stop  offset="0.6196" style="stop-color:#E4D2BE;stop-opacity:0.6273"/>
	<stop  offset="0.7605" style="stop-color:#C8A789;stop-opacity:0.3137"/>
	<stop  offset="0.9014" style="stop-color:#AC7954;stop-opacity:0"/>
</radialGradient>
<circle style="fill:url(#SVGID_00000156560241183201617180000015296251329163257473_);" cx="30.8" cy="146.5" r="26.8"/>
<radialGradient id="SVGID_00000030450869320157045880000001994464900224319406_" cx="234.5903" cy="322.8481" r="32.8549" fx="237.449" fy="343.873" gradientTransform="matrix(-0.8158 0.8158 -0.8937 -0.8937 599.003 165.6998)" gradientUnits="userSpaceOnUse">
	<stop  offset="0" style="stop-color:#FFFEFA"/>
	<stop  offset="0.192" style="stop-color:#FEFDF7"/>
	<stop  offset="0.3528" style="stop-color:#FDFAF0"/>
	<stop  offset="0.3928" style="stop-color:#FCF6E9"/>
	<stop  offset="0.4512" style="stop-color:#F7EAD6"/>
	<stop  offset="0.5205" style="stop-color:#EFD7B8"/>
	<stop  offset="0.5438" style="stop-color:#ECD0AC"/>
	<stop  offset="0.7972" style="stop-color:#714D38"/>
</radialGradient>
<path style="fill:url(#SVGID_00000030450869320157045880000001994464900224319406_);" d="M99.1,90.2C86.5,78.1,86.6,56.9,98,45.8
	c11.2-10.9,29.8-10.2,41.9,1.9s14.7,26.9,1.9,41.9C131.6,101.4,111.4,102,99.1,90.2z"/>
<radialGradient id="SVGID_00000159453184282248862980000006517300495589238719_" cx="-357.8369" cy="226.2444" r="36.7659" fx="-352.8831" fy="247.1477" gradientTransform="matrix(-1.1203 0 0 -1.2159 -173.5847 310.3775)" gradientUnits="userSpaceOnUse">
	<stop  offset="0" style="stop-color:#FFFEFA"/>
	<stop  offset="0.1319" style="stop-color:#FEFDF7"/>
	<stop  offset="0.2424" style="stop-color:#FDFAF0"/>
	<stop  offset="0.303" style="stop-color:#FCF6E9"/>
	<stop  offset="0.3915" style="stop-color:#F7EAD6"/>
	<stop  offset="0.4966" style="stop-color:#EFD7B8"/>
	<stop  offset="0.5319" style="stop-color:#ECD0AC"/>
	<stop  offset="0.6768" style="stop-color:#835D48"/>
	<stop  offset="0.9497" style="stop-color:#8C5C3D"/>
</radialGradient>
<path style="fill:url(#SVGID_00000159453184282248862980000006517300495589238719_);" d="M199.2,34.7c0-16.5,12.9-29.7,28.1-29.7
	c15.2,0,28.1,13.5,28.1,30s-7.9,30.7-28.1,30.7C212.1,65.6,199.2,52.4,199.2,34.7z"/>
<radialGradient id="SVGID_00000121269072590406444350000006205372411075190151_" cx="-333.5293" cy="415.2615" r="41.0564" fx="-340.7357" fy="440.5472" gradientTransform="matrix(-1.2082 -0.2093 0.2174 -1.2545 -158.298 521.4379)" gradientUnits="userSpaceOnUse">
	<stop  offset="0.031" style="stop-color:#FFFEFA"/>
	<stop  offset="0.095" style="stop-color:#FCF9F3"/>
	<stop  offset="0.1884" style="stop-color:#F4EADF"/>
	<stop  offset="0.3" style="stop-color:#E7D4BF"/>
	<stop  offset="0.4246" style="stop-color:#D6B594"/>
	<stop  offset="0.4395" style="stop-color:#D4B18E"/>
	<stop  offset="0.5697" style="stop-color:#D7B694"/>
	<stop  offset="0.7467" style="stop-color:#6D422F"/>
</radialGradient>
<path style="fill:url(#SVGID_00000121269072590406444350000006205372411075190151_);" d="M304.8,65.1c3-17.3,18.9-29,35.6-26.1
	c16.6,2.9,27.7,19.2,24.7,36.5s-17.2,29.3-35.6,26.1C312.9,98.6,301.6,83.8,304.8,65.1z"/>
<radialGradient id="SVGID_00000093146061660184198950000015688140293672518791_" cx="-277.0912" cy="427.1031" r="41.0938" fx="-287.0761" fy="451.4519" gradientTransform="matrix(-1.1863 -0.2055 0.2055 -1.1863 6.4434 599.3594)" gradientUnits="userSpaceOnUse">
	<stop  offset="0.0436" style="stop-color:#FDF6E0"/>
	<stop  offset="0.1115" style="stop-color:#FBF1D9"/>
	<stop  offset="0.2107" style="stop-color:#F4E3C5"/>
	<stop  offset="0.3285" style="stop-color:#EACEA5"/>
	<stop  offset="0.3893" style="stop-color:#E4C092"/>
	<stop  offset="0.6319" style="stop-color:#8C5C3D"/>
	<stop  offset="0.6701" style="stop-color:#372623"/>
</radialGradient>
<path style="fill:url(#SVGID_00000093146061660184198950000015688140293672518791_);" d="M393.3,144.5c0.4-16.7,18.5-27.4,34.9-24.6
	s27.4,18.5,24.6,34.9s-14.5,28.1-34.9,24.6C401.5,176.7,392.9,165.4,393.3,144.5z"/>
<g>
	<path class="st9" d="M133.6,354.8c0,0-11.4-21.5-17.5-37l-27.3-61.5L64,197.8c0,0-10-21.4-12.1-28.9c0,0-1.3-4.9,2.5-12.1
		c0,0,9.1-12.4,3.1-20.9c0,0,1.6,6.2-2.8,12.8c0,0-7.2,11.2-7.5,15.5c0,0-0.4,7.1,5.3,15.8c0,0,7.1,12.2,8.6,16.2
		c0,0,57.9,133.4,58.2,134.2C119.6,331.1,128.4,351.7,133.6,354.8z"/>
	<path class="st9" d="M139.5,147.1c0,0,25.8,101.3,27.4,105.3c0,0,13.5,53.5,16.1,59.3c0,0,4.4,5.4,8.8,8c0,0-4.9-6.1-7-15.6
		l-16.1-68.9l-21.8-86.5c0,0-10.8-41.4-11.1-50.2c0,0-0.7-4.5,2.8-10l4.6-5.9c0.5-0.6,0.9-1.2,1.2-1.9c1-1.8,3-5.5,3.7-8.5
		c0,0,2-14.1-6.3-14.1c0,0-0.3,7.7-4.6,14.3c0,0-6.2,9.6-8.9,15.3c-0.9,2-1.3,4.1-1.2,6.3c0.2,2.8,1.5,5.8,2.4,10.8
		C129.6,104.8,137.4,133.7,139.5,147.1z"/>
	<path class="st9" d="M229.5,78.8l3.3,79.2l4.5,92.6L243,308c1.2,12.4,8.3,10.9,8.3,10.9c-6.6-2.8-6-22.7-6-22.7l-5.9-109.7l-6-120
		c0-1,0-1.9,0.2-2.9c1.1-6.1,3.3-8.4,3.3-8.4c6-10.6,10.9-11.1,12.5-10.9c1.1,0.1,4.8,0.7,5.4-0.3c1.1-1.7,1.5-8.2,1.5-8.2
		c-1.4-6.3-5.9-7.8-5.9-7.8c0.4,1.4-5.9,8.5-5.9,8.5l-12,13.8c-3.3,4.3-3.1,10-3.1,10L229.5,78.8L229.5,78.8z"/>
	<path class="st9" d="M239.3,66c-0.4,0.6-0.6,1.2-0.8,1.9c-0.3,1.6-0.9,4.9-0.6,7.5l5.5,119.9l6.3,118.3c0,0,0.7,4.5,6.7,6.2
		c0,0-5.9-2.6-5.3-16l-5.2-116.2L240.2,76c0,0-1.1-7.4,1.3-13.3L239.3,66z"/>
	<path class="st9" d="M314.2,353.1c0,0-4.9-2.9-4.9-10.5l6.1-84.9l12.8-95.5l7.1-59.8c0,0-0.7-5.2,3.9-9.4c0.6-0.6,3.7-4.5,4.2-5.1
		c1.7-2.3,4.9-3.5,9.7-7.6l6.9-4.6c1.5-0.7,3.9,2.8,3.9,1.2c0.1-3.1-1.1-7.3-3.3-10.2L357,61c0,0-11.1,8.2-14.2,10.6
		c0,0-12.4,12-15.3,22.9c0,0-2,12.2-2.7,20.2l-13.5,102.1c0,0-15.9,106.7-12.3,127.4C299,344.2,302.2,360.9,314.2,353.1z"/>
	<path class="st9" d="M447,142.3c0,0-4.9-7-11.4-9c-1-0.3-2.1,0-2.8,0.6c-1.7,1.4-4.7,3.9-6.8,5.6c-0.8,0.6-1.7,1.2-2.6,1.7
		c-2.8,1.4-10.8,6.3-17.5,17.9c-0.4,0.6-0.6,1.3-0.7,2.1c-0.2,2.2-0.7,7.1-0.8,9.7c0,0.7,0,1.3,0.2,2c0.3,1.2,0.6,4.1-1.3,7.6
		l-44.4,104.8l-26.9,65c0,0-7.3,17.8-21.3,30c0,0-5.6,4.7-20.9,1.8c0,0-60.4-9.5-92.6-4.9c0,0-34.6,2.4-44.2,26.6
		c0,0-6.4,13.1-1.6,32.2c0,0,3.3,16.4,2.4,22.4c0,0,3.3,7.3,9.1,10.4l2.2,1.8c0,0-15.3-0.7-33.5-14.4c0,0,6.4,9.8,22,14.2
		c0,0,24,9.3,37.7,11.5c0,0-26.9-12-31.8-20.9c0,0,0-2.2,2.9-1.6c0,0,9.5,4.5,45.5,5c0,0,34.9,0.6,59.6-6.9c0,0,34.8-7.8,40.4-34
		c0,0,9.8-36.6,19.3-52c0,0,24.2-52.2,32.9-74.8l34.9-87.4c0,0,10.2-27,11.1-29c0,0,2.9-11.5,7.5-17.8c0,0,6.3-8.8,10.5-12.4
		c1.1-0.9,2.3-1.6,3.7-1.8c1.6-0.3,4.2-0.6,6.4,0.5c0,0,11.5,4.7,15.8,4.2C450.1,153.1,452.6,150.7,447,142.3z M301.4,425.5
		c0,0,0.5,14.7-20.3,23.3c0,0-20.9,14.3-77.3,8.7c0,0-41.7,0.2-47.6-21.5c0,0-4.054-13.133,5.25-28.42
		c0,0,12.113-15.76,54.313-17.56c0,0,52.294-2.525,77.395,15.775C293.158,405.794,303.216,413.192,301.4,425.5z"/>
	<path class="st9" d="M291.2,404.1c-9.1-7.1-18.124-11.522-18.124-11.522c-30.9-6-60.837-4.316-60.837-4.316
		C167.339,391.362,159,410.9,159,410.9l0.774-5.51c-3.402,1.686-2.416,13.034-1.263,14.712c1.426-3.967,0.705-5.328,4.329-8.875
		c6.625-6.484,11.734-7.626,14.795-8.919c6.878-2.905,14.116-4.767,20.569-5.961c11.525-2.132,20.547-2.132,20.547-2.132
		c20.134-0.483,31.591,0.574,37.116,1.302c2.827,0.372,12.068,2.64,13.256,2.977c36.093,10.233,29.907,28.93,29.907,28.93
		C302.751,409.472,291.2,404.1,291.2,404.1z"/>
</g>
<path class="st10" d="M8.8,163.6c0,0,4.4,7.7,13.8,11.4c0,0,3.7,1.5,7.3,2.4c0,0,4.1,0.5,6,3.6l16.5,46.4l23.5,67.9l46,133.6
	l8.4,24.1l2.1,6.6c0,0,1.1,3.5,3.6,4.6c0,0,16.1,10.7,41.7,17.3c0,0,18.6,7.4,50.6,8.6c0,0,36.1,1.1,60.2-9c0,0,17.7-6.7,25.6-11.1
	c0,0-6.3,6-34.2,15.5c0,0-31,9.4-67.3,5.9c0,0-41.1-4.8-77.7-24.7c0,0-2.9-0.5-5.8-10.1L114,411.9l-14.3-42.7L76,300.5l-20.9-61.3
	l-19.1-55c0,0-1.4-4.6-5.5-4.9c-0.4,0-0.7-0.1-1.1-0.1C26.4,178.4,12.2,174.4,8.8,163.6z"/>
<path class="st11" d="M190.4,479.8c0,0,59.3,13.6,114.1-11.1l9.5-4.2c0,0-18.1,16.4-72.6,21.2C241.3,485.7,210.2,487.1,190.4,479.8z
	"/>
<path class="st12" d="M150.9,420.9c0,0,2.1-18.3,10.1-25.7c0,0,7.3-10.7,43.3-14.9c0,0,40.7-5.1,78.3,8.6c0,0,11.9,4.5,16.9,14.8
	c0,0-7.8-17.6-57.2-21c0,0-27.4-2.1-52.4,3c-3.5,0.7-6.9,1.5-10.4,2.2C173.914,389.902,155.4,393.5,150.9,420.9z"/>
</svg>
